<svg width="300" height="56" viewBox="0 0 300 56" fill="none" xmlns="http://www.w3.org/2000/svg">
<g clip-path="url(#clip0_116475_22159)">
<path fill-rule="evenodd" clip-rule="evenodd" d="M299.24 0.552292V36.7406H283.206V0.552292C283.206 0.134292 283.565 -0.194206 283.953 -0.194206H298.494C298.912 -0.194206 299.24 0.134292 299.24 0.552292ZM173.596 43.3986V12.6449C173.596 11.6297 174.014 10.6444 174.731 9.9278L183.688 1.00009C184.405 0.283492 185.39 -0.134506 186.406 -0.134506H224.385V15.8995H189.899H189.63V39.3086H226.923V18.4971H236.06L242.927 25.3646V42.5036C242.927 43.5486 242.539 44.5336 241.793 45.2506L232.865 54.1776C232.119 54.9246 231.133 55.3126 230.118 55.3126H185.51C184.315 55.3126 183.151 54.8346 182.285 53.9686L174.97 46.6536L174.94 46.6236C174.074 45.7876 173.596 44.6236 173.596 43.3986ZM226.893 -0.134506H241.703C242.897 -0.134506 244.032 0.343298 244.868 1.1793L282.997 39.3386H298.464C298.882 39.3386 299.21 39.6666 299.21 40.0846V54.5956C299.21 55.0136 298.882 55.3426 298.464 55.3426H278.28C277.055 55.3426 275.921 54.8946 275.055 54.0286L242.927 21.901L236.926 15.8995H226.893V-0.134506ZM170.7 40.2336V54.7456C170.7 55.1636 170.342 55.4916 169.924 55.4916H152.516C152.307 55.4916 152.128 55.4016 151.979 55.2826L134.93 38.2036H136.154V38.1736H139.647C139.916 38.1736 140.155 38.0846 140.334 37.9046L148.814 29.4256L158.846 39.4876H169.924C170.342 39.4876 170.7 39.8156 170.7 40.2336ZM170.7 0.492592V15.0037C170.7 15.4217 170.342 15.78 169.924 15.78H158.846L138.991 35.6056L125.166 35.6356L105.549 55.2826C105.4 55.4016 105.221 55.4916 105.012 55.4916H85.7531C85.3351 55.4916 84.9768 55.1636 84.9768 54.7456V40.2336C84.9768 39.8156 85.3351 39.4876 85.7531 39.4876H98.6818L118.538 19.6317L132.362 19.6019L151.979 -0.0449066C152.128 -0.164307 152.307 -0.253906 152.516 -0.253906H169.924C170.342 -0.253906 170.7 0.0744919 170.7 0.492592ZM98.6818 15.78H85.7531C85.3351 15.78 84.9768 15.4217 84.9768 15.0037V0.492592C84.9768 0.0744919 85.3351 -0.253906 85.7531 -0.253906H105.012C105.221 -0.253906 105.4 -0.164307 105.549 -0.015007L122.598 17.0341H121.404V17.0639H117.881C117.612 17.0639 117.373 17.1535 117.194 17.3625L108.744 25.8126L98.6818 15.78ZM81.3341 55.3426H66.8229C66.4049 55.3426 66.0765 55.0136 66.0765 54.5956V19.0644C66.0765 18.6464 66.4049 18.318 66.8229 18.318H81.3341C81.7521 18.318 82.1104 18.6464 82.1104 19.0644V54.5956C82.1104 55.0136 81.7521 55.3426 81.3341 55.3426ZM81.3341 15.7203H66.8229C66.4049 15.7203 66.0765 15.3919 66.0765 14.9738V0.492592C66.0765 0.0744919 66.4049 -0.253906 66.8229 -0.253906H81.3341C81.7521 -0.253906 82.1104 0.0744919 82.1104 0.492592V14.9738C82.1104 15.3919 81.7521 15.7203 81.3341 15.7203ZM16.0339 0.522392V29.7536L9.16651 36.6216H0.0298602V0.522392C0.0298602 0.104392 0.358302 -0.253906 0.776318 -0.253906H15.2875C15.7055 -0.253906 16.0339 0.104392 16.0339 0.522392ZM0 39.9656C0 39.5776 0.3583 39.2186 0.746458 39.2186H10.0324L16.0339 33.2176L48.1615 1.0897C49.0274 0.253699 50.1918 -0.253906 51.3862 -0.253906H62.4636C62.8816 -0.253906 63.2101 0.104392 63.2101 0.522392V15.0336C63.2101 15.4516 62.8816 15.78 62.4636 15.78H56.1038L17.9747 53.9386C17.1387 54.7746 16.0041 55.2526 14.8097 55.2526H0.746458C0.3583 55.2526 0 54.8946 0 54.4766V39.9656Z" fill="#D0FF00"/>
</g>
<defs>
<clipPath id="clip0_116475_22159">
<rect width="300" height="56" fill="white"/>
</clipPath>
</defs>
</svg>
