<svg width="300" height="56" viewBox="0 0 300 56" fill="none" xmlns="http://www.w3.org/2000/svg">
<g clip-path="url(#clip0_116475_22163)">
<path fill-rule="evenodd" clip-rule="evenodd" d="M299.24 0.806174V36.9945H283.206V0.806174C283.206 0.388157 283.565 0.0597157 283.953 0.0597157H298.494C298.912 0.0597157 299.24 0.388157 299.24 0.806174ZM173.596 43.6529V12.8988C173.596 11.8836 174.014 10.8983 174.731 10.1817L183.688 1.25405C184.405 0.537449 185.39 0.119431 186.406 0.119431H224.385V16.1534H189.899H189.63V39.5623H226.923V18.751H236.06L242.927 25.6184V42.7571C242.927 43.8022 242.539 44.7875 241.793 45.5041L232.865 54.4317C232.119 55.1782 231.133 55.5664 230.118 55.5664H185.51C184.315 55.5664 183.151 55.0886 182.285 54.2227L174.97 46.9074L174.94 46.8776C174.074 46.0415 173.596 44.8771 173.596 43.6529ZM226.893 0.119431H241.703C242.897 0.119431 244.032 0.597163 244.868 1.4332L282.997 39.5921H298.464C298.882 39.5921 299.21 39.9206 299.21 40.3386V54.8497C299.21 55.2678 298.882 55.5962 298.464 55.5962H278.28C277.055 55.5962 275.921 55.1483 275.055 54.2824L242.927 22.1549L236.926 16.1534H226.893V0.119431ZM170.7 40.4879V54.999C170.7 55.4171 170.342 55.7455 169.924 55.7455H152.516C152.307 55.7455 152.128 55.6559 151.979 55.5365L134.93 38.4575H136.154V38.4277H139.647C139.916 38.4277 140.155 38.3381 140.334 38.1589L148.814 29.6792L158.846 39.7414H169.924C170.342 39.7414 170.7 40.0699 170.7 40.4879ZM170.7 0.746458V15.2576C170.7 15.6756 170.342 16.0339 169.924 16.0339H158.846L138.991 35.8599L125.166 35.8897L105.549 55.5365C105.4 55.6559 105.221 55.7455 105.012 55.7455H85.7531C85.3351 55.7455 84.9768 55.4171 84.9768 54.999V40.4879C84.9768 40.0699 85.3351 39.7414 85.7531 39.7414H98.6818L118.538 19.8856L132.362 19.8558L151.979 0.209007C152.128 0.0895741 152.307 0 152.516 0H169.924C170.342 0 170.7 0.328442 170.7 0.746458ZM98.6818 16.0339H85.7531C85.3351 16.0339 84.9768 15.6756 84.9768 15.2576V0.746458C84.9768 0.328442 85.3351 0 85.7531 0H105.012C105.221 0 105.4 0.0895713 105.549 0.238863L122.598 17.288H121.404V17.3178H117.881C117.612 17.3178 117.373 17.4074 117.194 17.6164L108.744 26.0663L98.6818 16.0339ZM81.3341 55.5962H66.8229C66.4049 55.5962 66.0765 55.2678 66.0765 54.8497V19.3183C66.0765 18.9003 66.4049 18.5719 66.8229 18.5719H81.3341C81.7521 18.5719 82.1104 18.9003 82.1104 19.3183V54.8497C82.1104 55.2678 81.7521 55.5962 81.3341 55.5962ZM81.3341 15.9742H66.8229C66.4049 15.9742 66.0765 15.6458 66.0765 15.2277V0.746458C66.0765 0.328442 66.4049 0 66.8229 0H81.3341C81.7521 0 82.1104 0.328442 82.1104 0.746458V15.2277C82.1104 15.6458 81.7521 15.9742 81.3341 15.9742ZM16.0339 0.776314V30.0076L9.16651 36.875H0.0298602V0.776314C0.0298602 0.358297 0.358302 0 0.776318 0H15.2875C15.7055 0 16.0339 0.358297 16.0339 0.776314ZM0 40.2192C0 39.831 0.3583 39.4727 0.746458 39.4727H10.0324L16.0339 33.4712L48.1615 1.34362C49.0274 0.507592 50.1918 0 51.3862 0H62.4636C62.8816 0 63.2101 0.358297 63.2101 0.776314V15.2875C63.2101 15.7055 62.8816 16.0339 62.4636 16.0339H56.1038L17.9747 54.1929C17.1387 55.0289 16.0041 55.5066 14.8097 55.5066H0.746458C0.3583 55.5066 0 55.1483 0 54.7303V40.2192Z" fill="white"/>
</g>
<defs>
<clipPath id="clip0_116475_22163">
<rect width="300" height="56" fill="white"/>
</clipPath>
</defs>
</svg>
